PathFileType	4	(X/Y/Z)	C:\Users\Basilio\Documents\Thesis Gigler\squatting_fais\c3dfiles\044\SLS_front_pre2\markers_experimental.trc
DataRate	CameraRate	NumFrames	NumMarkers	Units	OrigDataRate	OrigDataStartFrame	OrigNumFrames
200.000000	200.000000	4	60	mm	200.000000	607	1620
Frame#	Time	FHD			LBHD			RBHD			C7			T10			CLAV			LSHO			LUUPA			LMUPA			LDUPA			LLEP			LMEP			LRAD			LRFIN			RSHO			RUPA1			RMUPA			RDUPA			RLEP			RMEP			RUL			LASI			RASI			USACR			LSACR			RSACR			LTHI1			LTHI2			LTHI3			LTHI4			LLFC			LMFC			LTIB1			LTIB2			LTIB3			LTIB4			LLMAL			LMMAL			LHEE			LMT1			LMT2			LMT5			RTHI			RTHI2			RTHI3			RTHI4			RLFC			RMFC			RTIB1			RTIB2			RTIB3			RTIB4			RLMAL			RMMAL			RHEE			RMT1			RMT2			RMT5			RUFIN			LUL			
		X1	Y1	Z1	X2	Y2	Z2	X3	Y3	Z3	X4	Y4	Z4	X5	Y5	Z5	X6	Y6	Z6	X7	Y7	Z7	X8	Y8	Z8	X9	Y9	Z9	X10	Y10	Z10	X11	Y11	Z11	X12	Y12	Z12	X13	Y13	Z13	X14	Y14	Z14	X15	Y15	Z15	X16	Y16	Z16	X17	Y17	Z17	X18	Y18	Z18	X19	Y19	Z19	X20	Y20	Z20	X21	Y21	Z21	X22	Y22	Z22	X23	Y23	Z23	X24	Y24	Z24	X25	Y25	Z25	X26	Y26	Z26	X27	Y27	Z27	X28	Y28	Z28	X29	Y29	Z29	X30	Y30	Z30	X31	Y31	Z31	X32	Y32	Z32	X33	Y33	Z33	X34	Y34	Z34	X35	Y35	Z35	X36	Y36	Z36	X37	Y37	Z37	X38	Y38	Z38	X39	Y39	Z39	X40	Y40	Z40	X41	Y41	Z41	X42	Y42	Z42	X43	Y43	Z43	X44	Y44	Z44	X45	Y45	Z45	X46	Y46	Z46	X47	Y47	Z47	X48	Y48	Z48	X49	Y49	Z49	X50	Y50	Z50	X51	Y51	Z51	X52	Y52	Z52	X53	Y53	Z53	X54	Y54	Z54	X55	Y55	Z55	X56	Y56	Z56	X57	Y57	Z57	X58	Y58	Z58	X59	Y59	Z59	X60	Y60	Z60	

608	3.035	-194.0274658203126	1738.339477539063	-1065.489379882813	-329.0209045410157	1708.321411132813	-1144.2265625	-375.4168395996094	1700.595336914063	-984.972106933594	-403.4452209472657	1528.993286132813	-1067.158935546875	-455.771942138672	1233.455200195313	-1033.912719726563	-270.1849670410157	1476.339599609375	-1058.061889648438	-299.9797058105469	1530.629760742188	-1206.354248046875	-133.3002166748047	1488.32080078125	-1288.921508789063	-109.1679458618164	1498.177978515625	-1245.381958007813	-65.84049224853517	1476.555908203125	-1282.627319335938	-8.526963233947756	1471.404907226563	-1267.963256835938	-26.39031791687012	1396.779663085938	-1250.438232421875	nan	nan	nan	247.7847595214844	1486.581420898438	-1032.921508789063	-322.8589172363282	1537.130493164063	-905.1760253906252	-174.7151641845703	1502.64599609375	-798.5339965820315	-142.7915191650391	1513.281127929688	-836.5241699218752	-105.7866744995117	1494.94921875	-793.6967773437502	-44.48614120483399	1491.424560546875	-801.5701904296877	-53.97104644775392	1412.359375	-812.5118408203127	218.6467437744141	1481.070678710938	-901.9922485351565	-299.1782531738282	1016.828918457031	-1099.976440429688	-311.8892211914063	1023.735229492188	-886.9132080078127	-471.2021789550782	1076.638305664063	-1003.2451171875	-477.1519470214845	1042.455200195313	-1026.3173828125	-481.1954650878907	1052.10205078125	-971.1399536132815	-329.7369079589844	775.8438110351565	-1170.43896484375	-271.0200500488282	715.4371337890626	-1170.029907226563	-227.2708129882813	733.2993774414064	-1163.756591796875	-276.6578063964844	656.8861083984376	-1153.829223632813	-214.172836303711	516.3679199218751	-1134.817504882813	-203.9547119140626	521.0372314453126	-1013.353210449219	-219.6520996093751	349.3224182128907	-1039.451904296875	-256.5856323242188	300.9987487792969	-1103.744506835938	-226.0931396484376	297.1454467773438	-1066.451171875	-259.8979797363282	229.4274902343751	-1027.433837890625	-339.3495788574219	126.7304458618164	-1061.149291992188	-316.6939392089844	139.0627593994141	-977.4763183593752	-407.5228881835939	111.5628433227539	-1008.043701171875	-201.6959075927735	61.94444274902345	-985.308044433594	-200.5461730957032	61.5051956176758	-1032.34521484375	-237.932357788086	49.54763031005861	-1079.065673828125	-276.0171508789063	778.2439575195315	-792.3299560546877	-211.0041656494141	759.1926269531251	-794.9785766601565	-186.5381011962891	779.8062133789065	-805.7656250000002	-185.9283905029297	679.2389526367189	-805.4460449218752	-131.1966094970703	584.9654541015626	-807.5083618164065	-138.0848999023438	568.9735107421876	-928.3597412109377	-51.29109191894533	474.3411865234376	-829.2659912109377	-99.32812500000003	389.0877990722657	-777.2144165039065	-58.627254486084	392.9182434082032	-796.3032226562502	-35.80819702148438	345.2709960937501	-818.7579345703127	-55.21517181396486	178.9977722167969	-791.513854980469	-41.66056060791016	188.9245300292969	-876.3819580078127	-94.04204559326173	115.6615295410157	-831.6301879882815	101.8371734619141	188.5657958984375	-865.9345703125002	109.7523803710938	192.8445892333985	-829.8265380859377	86.94840240478517	162.7047576904297	-775.1041259765627	240.2268981933594	1460.543212890625	-1013.136047363281	236.4122467041016	1466.620483398438	-1131.875732421875	
609	3.04	-194.1488952636719	1737.254760742188	-1065.621215820313	-328.0317993164063	1707.735595703125	-1144.45361328125	-374.9973144531251	1699.677978515625	-985.063903808594	-403.2980041503907	1528.244018554688	-1067.396240234375	-456.205780029297	1232.76904296875	-1033.79736328125	-270.4326477050782	1475.43017578125	-1058.315551757813	-299.0183105468751	1530.368286132813	-1206.319213867188	-133.0621490478516	1487.63720703125	-1289.217163085938	-108.8992767333985	1497.33447265625	-1245.561767578125	-65.67227935791017	1475.646606445313	-1282.883178710938	-8.375444412231447	1470.489868164063	-1268.252563476563	-26.37746047973634	1395.802856445313	-1250.510375976563	nan	nan	nan	247.9025573730469	1485.74560546875	-1032.940551757813	-322.8651733398438	1536.600830078125	-905.389099121094	-174.7262573242188	1501.836547851563	-798.6942138671877	-142.6484375	1512.419677734375	-836.6133422851565	-105.6154479980469	1494.206420898438	-794.1317138671877	-44.28414916992188	1490.737670898438	-801.793884277344	-53.92282485961915	1411.22216796875	-812.7447509765627	218.8879547119141	1479.516723632813	-901.8863525390627	-300.1880187988282	1016.018920898438	-1099.952392578125	-313.0258178710938	1023.106140136719	-886.7716064453127	-472.1738586425782	1076.085327148438	-1003.041564941406	-477.817108154297	1041.343994140625	-1026.193359375	-482.239959716797	1051.549194335938	-970.9559326171877	-330.3382263183594	775.2417602539065	-1170.602294921875	-271.4349670410157	714.9277343750001	-1170.357177734375	-227.771713256836	732.9847412109376	-1164.067626953125	-276.8281860351563	656.2348632812501	-1154.123168945313	-213.4987945556641	515.8101196289064	-1135.233276367188	-203.6466522216797	520.8664550781251	-1013.730590820313	-219.010726928711	349.0669250488282	-1039.77880859375	-256.6010437011719	300.7734985351563	-1104.050537109375	-225.945785522461	296.4276428222657	-1066.662231445313	-259.7378234863282	229.154281616211	-1027.77099609375	-339.3668212890626	126.5253067016602	-1061.247924804688	-316.5945739746094	139.2924041748047	-977.755798339844	-407.5010986328126	111.4894409179688	-1008.116088867188	-201.7247314453126	62.01824951171876	-985.455505371094	-200.4867095947266	61.52900695800783	-1032.458862304688	-237.9597778320313	49.37783432006837	-1079.036376953125	-276.0090942382813	778.0014648437502	-791.8310546875002	-210.7384490966797	759.3325195312501	-794.6000976562502	-186.3480224609375	779.974304199219	-805.5480957031252	-185.0048065185547	679.6788940429689	-805.417663574219	-129.9937591552735	585.9919433593751	-807.2669677734377	-137.0377960205078	569.7055664062501	-928.1890258789065	-50.17477416992189	475.3938293457032	-828.850524902344	-98.03406524658206	390.1500854492189	-776.817810058594	-57.4519386291504	393.8890686035157	-796.2972412109377	-34.13313293457032	346.4298400878907	-819.0274047851565	-53.60247039794923	180.2786712646485	-791.5869750976565	-39.73756408691407	189.8318634033203	-876.1993408203127	-91.64978027343751	116.182357788086	-830.9299926757815	103.9576416015625	189.8578796386719	-865.3852539062502	111.686393737793	194.349594116211	-829.4838867187502	89.01467895507814	163.9001770019532	-774.8848876953127	240.5265655517579	1459.605224609375	-1013.44580078125	236.6738739013672	1465.603515625	-1132.074340820313	
610	3.045	-193.5962677001954	1736.248657226563	-1065.729736328125	-327.5587768554688	1706.669067382813	-1144.531860351563	-374.6477661132813	1698.789672851563	-985.2232666015627	-403.0821533203126	1527.446655273438	-1067.608276367188	-456.8338317871095	1232.06982421875	-1033.631469726563	-270.0938720703126	1474.468383789063	-1058.39306640625	-299.0481262207032	1529.22607421875	-1206.4833984375	-132.7472076416016	1486.635009765625	-1289.451416015625	-108.7256622314453	1496.3818359375	-1245.748168945313	-65.72339630126955	1474.876708984375	-1282.891235351563	-7.797329425811769	1469.322509765625	-1268.54150390625	-26.11568450927735	1394.832885742188	-1250.70947265625	nan	nan	nan	247.9851226806641	1485.131225585938	-1033.367553710938	-322.6644287109376	1535.767822265625	-905.5983886718752	-174.5818328857422	1500.975341796875	-798.8817138671877	-142.3731231689453	1511.403076171875	-836.7634887695315	-105.4760971069336	1493.434936523438	-794.3400878906252	-44.17687606811524	1489.722900390625	-801.8621215820315	-53.8312339782715	1410.3203125	-812.7879028320315	218.9126129150391	1478.68115234375	-902.0952148437502	-301.3720397949219	1015.037902832031	-1099.846801757813	-313.7171325683594	1022.498901367188	-886.6281738281252	-473.1189270019532	1075.488891601563	-1002.875549316406	-478.5976867675782	1040.893432617188	-1026.15185546875	-483.2773437500001	1050.992431640625	-970.7619628906252	-330.9474792480469	774.6541748046877	-1170.731201171875	-271.8377075195313	714.4942626953126	-1170.599243164063	-228.1150512695313	732.6520996093751	-1164.362060546875	-277.0016784667969	655.7590942382814	-1154.353271484375	-213.1965484619141	515.5698852539064	-1135.632934570313	-203.4665527343751	520.5992431640626	-1013.873352050781	-218.6947021484376	349.1193847656251	-1040.16943359375	-256.6827697753907	300.6608581542969	-1104.367309570313	-225.8851318359376	296.8558044433594	-1067.228759765625	-259.6119995117188	228.9145202636719	-1027.962524414063	-339.5401000976563	126.2304458618164	-1061.22607421875	-316.5683288574219	139.3546752929688	-977.8923339843752	-407.5204162597657	111.5069046020508	-1008.138488769531	-201.8295135498047	62.34801864624025	-985.3704223632815	-200.4185180664063	61.54247665405275	-1032.563232421875	-237.9266052246094	49.27677536010744	-1079.145141601563	-275.9208984375001	777.9710693359377	-791.6316528320315	-210.5264282226563	759.4027099609376	-794.2486572265627	-186.2991638183594	780.503845214844	-805.3564453125002	-184.5652465820313	680.0388793945314	-805.1507568359377	-128.8759002685547	586.7304077148439	-807.1108398437502	-135.8655853271485	570.5737915039064	-927.9695434570315	-48.83717346191408	476.6023559570314	-829.288757324219	-96.56855010986331	391.1965942382814	-776.9736938476565	-55.73772430419923	394.8955993652345	-796.0523071289065	-32.66486358642579	347.4512634277344	-818.958923339844	-51.56032562255861	180.8838500976563	-790.8948974609377	-37.69982910156251	190.9128570556641	-875.8982543945315	-89.91170501708986	117.6054992675782	-831.1063232421877	106.3333435058594	190.8805541992188	-864.7708129882815	113.6628036499024	195.5706939697266	-828.9924316406252	91.07410430908205	165.2215270996094	-774.5722656250002	240.7698059082032	1458.815795898438	-1013.612426757813	236.841781616211	1464.725952148438	-1132.136108398438	
611	3.05	-193.4473419189454	1735.343994140625	-1065.65478515625	-327.1043395996094	1705.909423828125	-1144.734375	-374.6291198730469	1697.312622070313	-985.0769653320315	-402.9328002929689	1526.583618164063	-1067.742797851563	-457.4463806152345	1231.846801757813	-1033.62646484375	-269.7843627929688	1473.263549804688	-1058.504760742188	-300.2402343750001	1527.068237304688	-1207.196899414063	-132.6730041503907	1485.80517578125	-1289.511962890625	-108.6194229125977	1495.666381835938	-1245.929931640625	-65.46054840087892	1474.00390625	-1283.303100585938	-7.626834392547609	1468.424438476563	-1268.75341796875	-26.03249168395997	1394.023803710938	-1250.806884765625	nan	nan	nan	248.0406494140626	1484.573364257813	-1033.677978515625	-322.3054809570313	1534.693115234375	-905.6920166015627	-174.1754150390625	1499.897094726563	-798.8923950195315	-142.1597290039063	1510.563354492188	-836.7431640625002	-105.2929000854492	1492.232299804688	-794.100280761719	-44.09696197509766	1488.62353515625	-802.0112304687502	-53.69903945922853	1409.545166015625	-812.9224853515627	219.0161590576172	1477.90185546875	-902.4748535156252	-302.3705444335938	1014.381530761719	-1099.74951171875	-314.4680786132813	1021.5810546875	-886.5490722656252	-474.069061279297	1074.870483398438	-1002.74755859375	-479.5769653320314	1040.046142578125	-1025.936157226563	-484.2918701171876	1050.4931640625	-970.5692138671877	-331.5846862792969	774.0789794921877	-1170.7373046875	-272.1014404296876	714.3361816406251	-1170.803833007813	-228.3942413330079	732.3220825195314	-1164.645141601563	-277.2160339355469	655.3034057617189	-1154.606811523438	-212.8924865722657	515.4758300781251	-1135.974853515625	-203.0498962402344	520.3418579101564	-1014.275024414063	-218.4938964843751	348.8113403320313	-1040.401000976563	-256.5989990234376	300.6055297851563	-1104.534790039063	-225.5910339355469	296.4007263183594	-1067.579711914063	-259.3787841796876	228.9097137451172	-1028.178588867188	-339.5241088867188	126.2385635375977	-1061.277709960938	-316.5891418457032	139.4241790771485	-978.0088500976565	-407.4869079589845	111.5229110717774	-1008.231750488281	-201.7428436279297	62.02925872802736	-985.5699462890627	-200.4350738525391	61.55602264404298	-1032.6201171875	-237.9323730468751	49.09634399414064	-1079.183837890625	-275.6476745605469	778.0946044921877	-791.8767700195315	-210.0472412109376	759.6831054687501	-794.0300903320315	-186.1850891113282	780.8852539062502	-805.1472167968752	-183.9907836914063	680.4391479492189	-805.0253906250002	-127.9789352416992	587.5282592773439	-807.1464843750002	-134.8927154541016	571.1763305664064	-927.8225708007815	-47.3889389038086	477.2094116210939	-828.6790771484377	-94.94962310791017	391.8075561523439	-776.545349121094	-54.35350799560548	395.8562011718751	-795.7031250000002	-31.0387306213379	348.3023681640626	-818.046081542969	-49.76930618286134	182.4432220458985	-791.2866821289065	-35.81937789916993	191.9546508789063	-875.5827636718752	-87.47607421875001	117.8214187622071	-830.4153442382815	108.2480545043946	195.5483856201172	-865.2744140625002	115.6669387817383	196.7757720947266	-828.854919433594	93.10997009277345	166.8485412597657	-774.0489501953127	240.8145599365235	1457.964599609375	-1013.821838378906	237.1150970458985	1464.12939453125	-1132.493286132813	
